<svg width="32" height="32" viewBox="0 0 32 32" fill="none" xmlns="http://www.w3.org/2000/svg">
<path fill-rule="evenodd" clip-rule="evenodd" d="M9.33398 14.6667C9.33398 13.9303 9.93094 13.3334 10.6673 13.3334H18.3449C19.0813 13.3334 19.6783 13.9303 19.6783 14.6667V15.3429C19.6783 15.711 19.3798 16.0095 19.0116 16.0095C18.6434 16.0095 18.3449 15.711 18.3449 15.3429V14.6667H10.6673V20.6667H14.9055C15.2737 20.6667 15.5721 20.9652 15.5721 21.3334C15.5721 21.7016 15.2737 22 14.9055 22H10.6673C9.93094 22 9.33398 21.4031 9.33398 20.6667V14.6667Z" fill="#283044"/>
<path fill-rule="evenodd" clip-rule="evenodd" d="M11.0121 12.8276C11.0121 10.8978 12.5766 9.33337 14.5064 9.33337C16.4362 9.33337 18.0007 10.8978 18.0007 12.8276V14H16.6673V12.8276C16.6673 11.6342 15.6998 10.6667 14.5064 10.6667C13.3129 10.6667 12.3455 11.6342 12.3455 12.8276V14H11.0121V12.8276Z" fill="#283044"/>
<path fill-rule="evenodd" clip-rule="evenodd" d="M18.3585 18.4304C18.3243 18.4665 18.2917 18.504 18.2607 18.5428C18.2095 18.607 18.1503 18.6659 18.0854 18.7165C17.8886 18.87 17.6401 18.9473 17.4053 18.864C17.0931 18.7532 16.925 18.4059 17.0956 18.1219C17.1643 18.0076 17.2405 17.898 17.3236 17.7941C17.3859 17.7161 17.4521 17.6412 17.522 17.5697C17.6924 17.3954 17.8845 17.2413 18.0949 17.1118C18.6779 16.753 19.3662 16.6043 20.0454 16.6906C20.7246 16.7769 21.3539 17.0929 21.8287 17.5862C22.3035 18.0794 22.5953 18.7203 22.6557 19.4022C22.716 20.0842 22.5413 20.7663 22.1605 21.3353C21.7797 21.9043 21.2157 22.3259 20.5622 22.5302C19.9088 22.7344 19.2051 22.709 18.568 22.4581C18.3382 22.3676 18.122 22.2497 17.9236 22.108C17.8423 22.0499 17.764 21.9878 17.6889 21.9219C17.5889 21.8342 17.4946 21.7397 17.4069 21.6392C17.1891 21.3896 17.2936 21.0181 17.5814 20.8542C17.798 20.731 18.0562 20.7634 18.2769 20.88C18.3496 20.9185 18.4183 20.966 18.48 21.0202C18.5173 21.0529 18.556 21.0841 18.596 21.1137C18.7217 21.2069 18.86 21.2838 19.0076 21.3419C19.3899 21.4925 19.8122 21.5078 20.2044 21.3852C20.5966 21.2626 20.9351 21.0096 21.1636 20.6681C21.3921 20.3267 21.497 19.9173 21.4608 19.508C21.4246 19.0987 21.2494 18.7141 20.9645 18.4181C20.6795 18.1221 20.3019 17.9324 19.8942 17.8806C19.4866 17.8288 19.0736 17.918 18.7236 18.1334C18.5885 18.2166 18.4659 18.3166 18.3585 18.4304Z" fill="#283044"/>
<path fill-rule="evenodd" clip-rule="evenodd" d="M16.447 17.2672C16.8068 17.1888 17.162 17.4168 17.2404 17.7765L17.4272 18.6327L18.2833 18.4459C18.6431 18.3675 18.9983 18.5955 19.0767 18.9552C19.1552 19.315 18.9272 19.6702 18.5674 19.7486L17.3856 20.0064C16.846 20.1241 16.3132 19.7821 16.1955 19.2425L15.9377 18.0606C15.8593 17.7009 16.0873 17.3457 16.447 17.2672Z" fill="#283044"/>
</svg>
