<svg width="24" height="24" viewBox="0 0 24 24" fill="none" xmlns="http://www.w3.org/2000/svg">
<path fill-rule="evenodd" clip-rule="evenodd" d="M2 10C2 8.89543 2.89543 8 4 8H15.5164C16.621 8 17.5164 8.89543 17.5164 10V11.0142C17.5164 11.5665 17.0687 12.0142 16.5164 12.0142C15.9641 12.0142 15.5164 11.5665 15.5164 11.0142L15.5164 10H4V19H10.3572C10.9095 19 11.3572 19.4477 11.3572 20C11.3572 20.5523 10.9095 21 10.3572 21H4C2.89543 21 2 20.1046 2 19V10Z" fill="#283044"/>
<path fill-rule="evenodd" clip-rule="evenodd" d="M4.51723 7.24139C4.51723 4.34665 6.86388 2 9.75862 2C12.6534 2 15 4.34665 15 7.24139V9H13V7.24139C13 5.45122 11.5488 4 9.75862 4C7.96845 4 6.51723 5.45122 6.51723 7.24139V9H4.51723V7.24139Z" fill="#283044"/>
<path fill-rule="evenodd" clip-rule="evenodd" d="M15.5367 15.6455C15.4855 15.6997 15.4366 15.756 15.3901 15.8142C15.3132 15.9104 15.2244 15.9988 15.1271 16.0747C14.832 16.305 14.4592 16.421 14.107 16.296C13.6387 16.1298 13.3866 15.6088 13.6425 15.1828C13.7455 15.0113 13.8598 14.847 13.9844 14.691C14.0779 14.574 14.1772 14.4617 14.282 14.3545C14.5376 14.093 14.8258 13.8619 15.1413 13.6677C16.0159 13.1294 17.0483 12.9065 18.0671 13.0359C19.0859 13.1653 20.0298 13.6393 20.742 14.3792C21.4543 15.1191 21.892 16.0803 21.9825 17.1033C22.0731 18.1263 21.811 19.1495 21.2398 20.0029C20.6686 20.8564 19.8226 21.4888 18.8424 21.7952C17.8622 22.1015 16.8066 22.0634 15.8511 21.6871C15.5063 21.5513 15.182 21.3744 14.8845 21.1619C14.7625 21.0747 14.645 20.9816 14.5324 20.8828C14.3823 20.7512 14.241 20.6095 14.1094 20.4587C13.7827 20.0844 13.9394 19.5271 14.3712 19.2813C14.696 19.0964 15.0833 19.1451 15.4144 19.32C15.5235 19.3776 15.6264 19.449 15.719 19.5302C15.775 19.5793 15.8331 19.6262 15.893 19.6705C16.0816 19.8102 16.289 19.9257 16.5104 20.0129C17.0839 20.2387 17.7174 20.2616 18.3056 20.0777C18.8939 19.8939 19.4016 19.5143 19.7444 19.0021C20.0872 18.4899 20.2445 17.8759 20.1902 17.2619C20.1358 16.648 19.8731 16.0711 19.4457 15.6271C19.0183 15.183 18.4518 14.8986 17.8404 14.8209C17.2289 14.7432 16.6093 14.877 16.0845 15.2001C15.8818 15.3248 15.6979 15.4749 15.5367 15.6455Z" fill="#283044"/>
<path fill-rule="evenodd" clip-rule="evenodd" d="M12.6696 13.9007C13.2092 13.7831 13.742 14.1251 13.8597 14.6647L14.1398 15.9489L15.424 15.6688C15.9636 15.5512 16.4965 15.8932 16.6141 16.4328C16.7318 16.9724 16.3898 17.5052 15.8502 17.6229L14.0774 18.0095C13.268 18.1861 12.4688 17.673 12.2923 16.8636L11.9056 15.0909C11.7879 14.5513 12.13 14.0184 12.6696 13.9007Z" fill="#283044"/>
</svg>
