<svg width="17" height="22" viewBox="0 0 17 22" fill="none" xmlns="http://www.w3.org/2000/svg">
<path fill-rule="evenodd" clip-rule="evenodd" d="M16.9423 0.63597C16.8031 0.25465 16.4451 0 16.0348 0H0.96518L0.85751 0.00637996L0.74564 0.02663L0.64643 0.05612C0.25985 0.1925 0 0.54549 0 0.95194V19.2058L0.00898981 19.3301L0.0364499 19.4585L0.07899 19.579C0.12823 19.6947 0.19745 19.7956 0.28557 19.8818L2.16935 21.724L2.25831 21.8003L2.36025 21.8667L2.46571 21.9189L2.57721 21.9582L2.6905 21.984C2.994 22.0348 3.30473 21.9428 3.5285 21.724L4.73223 20.5465L5.93672 21.724L6.0322 21.805L6.1422 21.8754L6.2574 21.9301C6.3737 21.9769 6.4936 22 6.6163 22L6.737 21.9924L6.86 21.969L6.9582 21.9379L7.0514 21.8975C7.1418 21.8526 7.2241 21.7943 7.296 21.724L8.5 20.5465L9.7041 21.724L9.7995 21.805L9.9096 21.8754L10.0247 21.9301C10.1411 21.9769 10.261 22 10.3837 22L10.5043 21.9924L10.6273 21.969L10.7255 21.9379L10.8186 21.8975C10.9091 21.8527 10.9914 21.7944 11.0633 21.724L12.2661 20.5465L13.4715 21.724L13.5698 21.8072L13.6802 21.8773L13.7947 21.9313C13.9104 21.9774 14.0293 22 14.151 22C14.4055 22 14.6489 21.9018 14.8307 21.724L16.7144 19.8819L16.7973 19.7884L16.8702 19.6792L16.9272 19.5644C16.976 19.4484 17 19.3286 17 19.2058V0.95194L16.9934 0.84508L16.9725 0.73386L16.9423 0.63597ZM1.93004 1.90275H15.0688L15.0692 18.845L14.1515 19.7076L12.9472 18.5299L12.8517 18.4489L12.7417 18.3785L12.6265 18.3238C12.5102 18.277 12.3903 18.2539 12.2676 18.2539L12.147 18.2615L12.021 18.286C11.8566 18.3288 11.7081 18.4124 11.588 18.5299L10.3829 19.706L9.1798 18.5299L9.0908 18.4536L8.9889 18.3872L8.8906 18.3385C8.5249 18.1809 8.1042 18.2525 7.8206 18.5299L6.616 19.706L5.41241 18.5299L5.31696 18.4489L5.20688 18.3785L5.09176 18.3238C4.97542 18.277 4.85553 18.2539 4.7328 18.2539L4.61218 18.2615L4.48616 18.286C4.32182 18.3289 4.17329 18.4124 4.05319 18.5299L2.84821 19.706L1.90527 18.785L1.93004 1.90275ZM11.9253 14.7371C12.4577 14.7371 12.8905 15.1626 12.8905 15.6891C12.8905 16.0955 12.6307 16.4485 12.2441 16.5849L12.1449 16.6144L12.033 16.6346L11.9253 16.641H5.07553C4.54318 16.641 4.11035 16.2156 4.11035 15.6891C4.11035 15.2826 4.3702 14.9296 4.75678 14.7933L4.85599 14.7638L4.96786 14.7435L5.07553 14.7371H11.9253ZM9.4074 3.98534C9.2682 3.60403 8.9102 3.34937 8.4999 3.34937L8.3997 3.35457L8.298 3.37039L8.1978 3.39744L8.1026 3.43416C7.7632 3.5858 7.5347 3.92016 7.5347 4.30132L7.5339 4.74428L7.3981 4.77938C6.4058 5.06132 5.70815 5.95395 5.70815 6.98077C5.70815 8.24553 6.7562 9.2725 8.0433 9.2725H8.9567L9.0279 9.2774L9.0904 9.2915L9.1541 9.3178C9.2758 9.3824 9.3614 9.5155 9.3614 9.6603C9.3614 9.8728 9.1805 10.048 8.9567 10.048H7.1299L7.0223 10.0544L6.9104 10.0747L6.8112 10.1042C6.4246 10.2405 6.1648 10.5935 6.1648 11L6.1701 11.0994L6.1863 11.2003L6.2138 11.2991L6.2512 11.393C6.4054 11.7275 6.7449 11.9519 7.1299 11.9519L7.5339 11.9514L7.5347 12.3397L7.5413 12.4466L7.5622 12.5578L7.5924 12.6557C7.7316 13.037 8.0895 13.2916 8.4999 13.2916L8.6001 13.2865L8.7018 13.2706L8.802 13.2436L8.8972 13.2069C9.2366 13.0552 9.4651 12.7209 9.4651 12.3397L9.4645 11.896L9.6008 11.8619C10.5941 11.5797 11.2918 10.6871 11.2918 9.6602C11.2918 8.39546 10.2438 7.36855 8.9567 7.36855H8.0433L7.972 7.3636L7.9095 7.34951L7.8459 7.3232C7.7242 7.25863 7.6385 7.1255 7.6385 6.98072C7.6385 6.76824 7.8194 6.59294 8.0433 6.59294H9.8699L9.9776 6.58656L10.0894 6.56631L10.1886 6.53682C10.5752 6.40044 10.8351 6.04745 10.8351 5.641L10.8298 5.54159L10.8136 5.44068L10.786 5.34185L10.7486 5.24797C10.5944 4.91344 10.2549 4.68906 9.8699 4.68906L9.4645 4.68802L9.4651 4.30141L9.4585 4.19446L9.4376 4.08324L9.4074 3.98534Z" fill="#283044"/>
</svg>
