<svg width="16" height="17" viewBox="0 0 16 17" fill="none" xmlns="http://www.w3.org/2000/svg">
<path d="M10.2254 11.4603L11.3735 10.3117C11.5282 10.1589 11.7238 10.0543 11.9367 10.0106C12.1496 9.96695 12.3706 9.98603 12.5729 10.0656L13.9722 10.6245C14.1766 10.7075 14.3519 10.8492 14.4759 11.0317C14.6 11.2142 14.6673 11.4293 14.6693 11.65V14.2138C14.6681 14.364 14.6365 14.5123 14.5765 14.6499C14.5165 14.7875 14.4293 14.9115 14.3201 15.0145C14.2109 15.1175 14.0821 15.1974 13.9412 15.2492C13.8004 15.3011 13.6505 15.3239 13.5006 15.3163C3.6954 14.7061 1.71693 6.3993 1.34276 3.22016C1.32539 3.06404 1.34126 2.90601 1.38933 2.75647C1.43739 2.60693 1.51656 2.46926 1.62163 2.35253C1.7267 2.23579 1.85528 2.14264 1.99892 2.07919C2.14256 2.01574 2.298 1.98343 2.45501 1.9844H4.93067C5.15159 1.98505 5.36726 2.05181 5.54994 2.17608C5.73262 2.30036 5.87396 2.47647 5.95579 2.68176L6.51447 4.0816C6.59661 4.28315 6.61757 4.50445 6.57472 4.71785C6.53188 4.93124 6.42713 5.12728 6.27357 5.28147L5.12544 6.43007C5.12544 6.43007 5.78664 10.9065 10.2254 11.4603Z" fill="#283044"/>
</svg>
