<svg width="24" height="25" viewBox="0 0 24 25" fill="none" xmlns="http://www.w3.org/2000/svg">
<path d="M7.44956 3.01146L17.4533 9.092L14.6074 12.0869L5.63854 2.73919C5.81102 2.73919 6.06973 2.64844 6.24221 2.64844C6.67341 2.64844 7.1046 2.73919 7.44956 3.01146ZM4 20.2548V5.00805C4 4.28202 4.34496 3.64674 4.86239 3.19296L13.9175 12.7222L4.94863 22.1606C4.34496 21.7069 4 20.9808 4 20.2548ZM7.44956 22.3421C6.93212 22.6144 6.32845 22.7052 5.81102 22.6144L14.6074 13.4482L17.367 16.3524L7.44956 22.3421ZM19.9542 14.7188L18.1432 15.8078L15.1248 12.7222L18.1432 9.54577L19.868 10.6348C20.5579 11.0886 20.9891 11.8146 20.9891 12.7222C21.0753 13.4482 20.6441 14.265 19.9542 14.7188Z" fill="#283044"/>
</svg>
