<svg width="24" height="25" viewBox="0 0 24 25" fill="none" xmlns="http://www.w3.org/2000/svg">
<path d="M17.3636 13.2844C17.3733 12.5178 17.5735 11.7662 17.9456 11.0994C18.3177 10.4327 18.8496 9.87248 19.4918 9.47096C19.0839 8.87842 18.5457 8.39078 17.92 8.04677C17.2943 7.70277 16.5983 7.51187 15.8874 7.48925C14.3708 7.32737 12.9006 8.41213 12.1278 8.41213C11.3401 8.41213 10.1502 7.50532 8.86895 7.53213C8.04019 7.55936 7.2325 7.80445 6.52457 8.24352C5.81664 8.68259 5.23262 9.30067 4.82941 10.0375C3.08279 13.1129 4.38561 17.6326 6.05872 20.1184C6.89582 21.3357 7.87414 22.6954 9.15425 22.6472C10.4069 22.5944 10.8748 21.8348 12.3868 21.8348C13.8849 21.8348 14.3238 22.6472 15.6299 22.6165C16.9741 22.5943 17.821 21.3939 18.6287 20.1651C19.2301 19.2977 19.693 18.3391 20 17.3248C19.2191 16.9889 18.5527 16.4266 18.0838 15.7081C17.615 14.9896 17.3645 14.1467 17.3636 13.2844Z" fill="#283044"/>
<path d="M14.8966 5.85437C15.6295 4.95962 15.9906 3.80956 15.9032 2.64844C14.7835 2.76804 13.7492 3.31227 13.0064 4.1727C12.6432 4.59304 12.365 5.08205 12.1878 5.61178C12.0106 6.14151 11.9378 6.70157 11.9735 7.25994C12.5335 7.26581 13.0876 7.14236 13.5939 6.89889C14.1003 6.65542 14.5457 6.29828 14.8966 5.85437Z" fill="#283044"/>
</svg>
