<svg width="24" height="24" viewBox="0 0 24 24" fill="none" xmlns="http://www.w3.org/2000/svg">
<path d="M11.7204 14.8281C11.1669 14.8281 10.7188 15.2894 10.7188 15.843C10.7188 16.3834 11.1537 16.8579 11.7204 16.8579C12.2871 16.8579 12.7353 16.3834 12.7353 15.843C12.7353 15.2894 12.274 14.8281 11.7204 14.8281Z" fill="#283044"/>
<path d="M11.8933 7.14062C10.114 7.14062 9.29688 8.195 9.29688 8.90673C9.29688 9.42078 9.73179 9.65801 10.0877 9.65801C10.7994 9.65801 10.5094 8.64315 11.8538 8.64315C12.5128 8.64315 13.04 8.93313 13.04 9.5394C13.04 10.2512 12.3019 10.6597 11.867 11.0288C11.4848 11.3583 10.9839 11.8987 10.9839 13.0321C10.9839 13.7175 11.1684 13.9152 11.7088 13.9152C12.3546 13.9152 12.4864 13.6253 12.4864 13.3748C12.4864 12.6895 12.4996 12.2941 13.2245 11.7273C13.5804 11.4506 14.7007 10.5543 14.7007 9.31536C14.7007 8.07643 13.5804 7.14062 11.8933 7.14062Z" fill="#283044"/>
<circle cx="12" cy="12" r="8.25" stroke="#283044" stroke-width="1.5"/>
</svg>
