<svg width="24" height="25" viewBox="0 0 24 25" fill="none" xmlns="http://www.w3.org/2000/svg">
<path d="M7.25301 19.1424L7.97701 19.5654C9.19795 20.2775 10.5866 20.6513 12 20.6484C13.5823 20.6484 15.129 20.1792 16.4446 19.3002C17.7602 18.4211 18.7855 17.1717 19.3911 15.7099C19.9966 14.2481 20.155 12.6396 19.8463 11.0877C19.5376 9.53587 18.7757 8.1104 17.6569 6.99158C16.538 5.87276 15.1126 5.11084 13.5607 4.80216C12.0089 4.49347 10.4004 4.6519 8.93855 5.2574C7.47674 5.8629 6.22731 6.88828 5.34826 8.20388C4.46921 9.51947 4.00001 11.0662 4.00001 12.6484C4.00001 14.0844 4.37701 15.4614 5.08401 16.6724L5.50601 17.3964L4.99071 19.2911C4.92981 19.5151 5.13531 19.7204 5.35918 19.6593L7.25301 19.1424ZM2.84774 22.4182C2.47459 22.52 2.1321 22.1778 2.23367 21.8046L3.35601 17.6804C2.46515 16.1533 1.99711 14.4164 2.00001 12.6484C2.00001 7.12544 6.47701 2.64844 12 2.64844C17.523 2.64844 22 7.12544 22 12.6484C22 18.1714 17.523 22.6484 12 22.6484C10.2328 22.6513 8.49667 22.1836 6.97001 21.2934L2.84774 22.4182ZM8.39101 7.95644C8.52501 7.94644 8.66001 7.94644 8.79401 7.95244C8.84801 7.95644 8.90201 7.96244 8.95601 7.96844C9.11501 7.98644 9.29001 8.08344 9.34901 8.21744C9.64701 8.89344 9.93701 9.57444 10.217 10.2574C10.279 10.4094 10.242 10.6044 10.124 10.7944C10.0429 10.9229 9.95507 11.0471 9.86101 11.1664C9.74801 11.3114 9.50501 11.5774 9.50501 11.5774C9.50501 11.5774 9.40601 11.6954 9.44401 11.8424C9.45801 11.8984 9.50401 11.9794 9.54601 12.0474L9.60501 12.1424C9.86101 12.5694 10.205 13.0024 10.625 13.4104C10.745 13.5264 10.862 13.6454 10.988 13.7564C11.456 14.1694 11.986 14.5064 12.558 14.7564L12.563 14.7584C12.648 14.7954 12.691 14.8154 12.815 14.8684C12.877 14.8944 12.941 14.9174 13.006 14.9344C13.0732 14.9515 13.1439 14.9483 13.2093 14.9252C13.2746 14.902 13.3316 14.86 13.373 14.8044C14.097 13.9274 14.163 13.8704 14.169 13.8704V13.8724C14.2193 13.8255 14.2791 13.7899 14.3443 13.768C14.4095 13.7461 14.4786 13.7384 14.547 13.7454C14.607 13.7494 14.668 13.7604 14.724 13.7854C15.255 14.0284 16.124 14.4074 16.124 14.4074L16.706 14.6684C16.804 14.7154 16.893 14.8264 16.896 14.9334C16.9 15.0004 16.906 15.1084 16.883 15.3064C16.851 15.5654 16.773 15.8764 16.695 16.0394C16.6416 16.1507 16.5707 16.2526 16.485 16.3414C16.3841 16.4474 16.2736 16.5438 16.155 16.6294C16.114 16.6603 16.0723 16.6903 16.03 16.7194C15.9056 16.7983 15.7778 16.8718 15.647 16.9394C15.3895 17.0762 15.1052 17.1547 14.814 17.1694C14.629 17.1794 14.444 17.1934 14.258 17.1834C14.25 17.1834 13.69 17.0964 13.69 17.0964C12.2683 16.7225 10.9534 16.0219 9.85001 15.0504C9.62401 14.8514 9.41501 14.6374 9.20101 14.4244C8.31101 13.5394 7.63901 12.5844 7.23101 11.6824C7.02218 11.2397 6.90938 10.7578 6.90001 10.2684C6.89589 9.66129 7.09436 9.0701 7.46401 8.58844C7.53701 8.49444 7.60601 8.39644 7.72501 8.28344C7.85201 8.16344 7.93201 8.09944 8.01901 8.05544C8.13469 7.99747 8.26088 7.96346 8.39001 7.95544L8.39101 7.95644Z" fill="#226C37"/>
</svg>
