<svg width="24" height="25" viewBox="0 0 24 25" fill="none" xmlns="http://www.w3.org/2000/svg">
<path d="M10.7293 14.2466H11.5274L11.1273 13.3119L10.7293 14.2466Z" fill="#283044"/>
<path fill-rule="evenodd" clip-rule="evenodd" d="M7.62855 2.64844H16.3693C20.4965 2.64844 22.0042 4.15581 22 8.27581V17.0211C22 21.1411 20.4902 22.6484 16.3693 22.6484H7.62855C3.50769 22.6484 2 21.1411 2 17.0211V8.27581C2 4.15581 3.50769 2.64844 7.62855 2.64844ZM9.65062 8.34507C10.2748 8.96915 11.1213 9.32 12.004 9.32056C12.8868 9.32 13.7333 8.96915 14.3575 8.34507C14.9817 7.72099 15.3326 6.87472 15.3332 5.99214H14.8636C14.8636 6.75038 14.5623 7.47756 14.0261 8.01372C13.4898 8.54987 12.7624 8.85108 12.004 8.85108C11.2456 8.85108 10.5183 8.54987 9.98204 8.01372C9.44577 7.47756 9.1445 6.75038 9.1445 5.99214H8.67492C8.67548 6.87472 9.02641 7.72099 9.65062 8.34507ZM6.49262 12.6487H5.96198V13.7013H4.76384V12.6487H4.2332V15.2655H4.76384V14.2024H5.96198V15.2655H6.49262V12.6487ZM8.95209 14.1455C8.95209 14.5666 8.74152 14.7982 8.35828 14.7982C7.97504 14.7982 7.76026 14.5666 7.76026 14.1224V12.6487H7.22962V14.1434C7.22962 14.8782 7.63813 15.2992 8.34986 15.2992C9.06158 15.2992 9.48272 14.8782 9.48272 14.1203V12.6487H8.95209V14.1455ZM14.0542 12.6487H14.4901L15.0839 14.4466L15.663 12.6487H16.2147L15.3029 15.2655H14.8586L14.2648 13.5476L13.6731 15.2655H13.233L12.3212 12.6487H12.8855L13.4646 14.4487L14.0542 12.6487ZM17.1643 14.1371H18.1309V13.6634H17.1643V13.1287H18.5667V12.6487H16.6421V15.2592H18.6173V14.7876H17.1643V14.1371ZM19.7733 15.2592H19.249V12.6487H19.7733V15.2592ZM10.5314 14.7182L10.2934 15.2613H9.75226L10.8957 12.6487H11.3631L12.5107 15.2613H11.9632L11.7379 14.7203L10.5314 14.7182Z" fill="#283044"/>
</svg>
