<svg width="24" height="25" viewBox="0 0 24 25" fill="none" xmlns="http://www.w3.org/2000/svg">
<path fill-rule="evenodd" clip-rule="evenodd" d="M2 4.87606L13.7307 2.64844L13.6899 22.6484L2 20.2635V4.87606ZM6.15939 15.2621C5.27225 14.2412 5.02501 12.637 5.44968 11.3044C6.04014 9.45141 7.5381 8.82516 8.79174 9.2541C9.50727 9.50002 10.1443 10.092 10.4846 10.9985C10.6475 11.4331 10.7347 11.9307 10.7405 12.4368C10.7522 13.3462 10.4322 14.4157 9.79814 15.162C8.82373 16.3059 7.17161 16.4231 6.1623 15.2621H6.15939ZM7.07272 14.2927C6.63642 13.655 6.51716 12.6542 6.72368 11.822C7.01163 10.6667 7.74753 10.275 8.36126 10.5438C8.71321 10.6982 9.02443 11.0671 9.19023 11.6333C9.26876 11.9049 9.31239 12.2138 9.3153 12.5312C9.32112 13.0974 9.16405 13.7665 8.85282 14.2327C8.3758 14.9476 7.56719 15.019 7.07272 14.2956V14.2927ZM14.4956 6.86348H21.3048C21.6859 6.86348 21.9971 7.16946 21.9971 7.54406V7.78999L16.6451 11.3387C16.5753 11.3845 16.4037 11.516 16.2612 11.6047C16.0518 11.7391 16.0372 11.7134 15.8162 11.5904C15.4759 11.4045 14.8883 11.0099 14.4927 10.7411V6.86348H14.4956ZM22 9.36562V16.526C22 17.098 21.523 17.5698 20.9383 17.5698H14.4956V12.2738C14.8825 12.5255 15.3973 12.8572 15.7144 13.0488C15.9703 13.2032 16.0169 13.2747 16.3019 13.1117C16.4328 13.0373 16.5608 12.9401 16.6481 12.8829L22 9.36848V9.36562Z" fill="#283044"/>
</svg>
