<svg xmlns="http://www.w3.org/2000/svg" width="776" height="348" viewBox="0 0 776 348">
    <g fill="none" fill-rule="evenodd">
        <g fill-rule="nonzero">
            <g>
                <g fill="#CFE6FD">
                    <path d="M441.673 134.89c-1.722-44.707-23.891-89.033-61.003-114.052-37.112-25.02-88.784-28.439-127.022-5.182-23.827 14.484-41.108 37.55-55.498 61.422-7.886 13.083-16.111 27.505-30.289 33.218-18.428 7.455-38.685-2.698-58.176-6.584C62.477 94.277 16.025 123 3.408 169.425c-17.004 70.491 32.457 120.806 85.34 151.348 59.112 34.152 133.91 34.11 198.186 11.341 42.192-14.867 81.514-39.504 110.251-73.805 28.738-34.3 46.23-78.711 44.488-123.419z" style="mix-blend-mode:normal" opacity=".7" transform="translate(-256 -143) translate(257 143) translate(173.853) matrix(-1 0 0 1 441.792 0)"/>
                    <path d="M98.058 334.434c14.119-9.672 20.754-30.905 11.928-45.552-8.933-13.324-22.804-23.952-38.652-26.198-15.847-2.245-33.444 5.266-40.51 19.676-4.455 9.07-4.466 20.03-.772 29.432 3.89 9.42 10.748 17.31 19.53 22.47 14.591 8.833 34.4 9.821 48.476.172z" style="mix-blend-mode:normal" opacity=".5" transform="translate(-256 -143) translate(257 143) translate(173.853)"/>
                    <path d="M515.419 50.14c-2.76-18.053-20.153-34.28-38.309-32.539-16.953 2.461-33.584 10.918-43.075 25.188s-10.383 34.655.214 48.12c6.668 8.478 17.18 13.56 27.916 14.345 10.857.6 21.613-2.366 30.631-8.446 15.3-9.993 25.382-28.594 22.623-46.668z" transform="translate(-256 -143) translate(257 143) translate(173.853)"/>
                </g>
                <g>
                    <g>
                        <g>
                            <path fill="#4060A9" d="M207.032 88.091c-3.038.009-6.062-.427-8.974-1.294-28.9-8.662-27.378-29.533-26.207-46.309 1.125-15.634 1.17-25.468-11.712-30.309-17.05-6.394-24.063-.183-34.695 9.225C112.79 30.61 97.062 44.553 58.884 38.89 45.47 36.897 28.081 32.277 3.4 17.786-2.684 14.215.424 7.211 4.734 9.704c17.779 10.288 35.762 18.793 55.26 21.68 34.68 5.146 48.354-6.971 60.43-17.658 10.83-9.59 21.052-18.648 42.377-10.656 18.83 7.079 17.659 23.474 16.61 37.951-1.218 16.943-2.267 31.573 20.822 38.5 26.01 7.794 60.218-33.491 80.614-58.092 7.301-8.784 12.366-15.147 16.412-18.45l5.72 4.567c-2.525 3.044-9.553 10.656-16.306 18.74-20.777 25.102-51.228 61.805-79.64 61.805z" transform="translate(-256 -143) translate(257 143) translate(-.176 39.869) translate(400.466 96.704) scale(-1 1) rotate(8 -256.53 -2583.667)"/>
                            <path fill="#FFF" d="M298.644 5.734c-3.623 4.346-7.635 8.35-11.986 11.965 3.643-4.326 7.653-8.33 11.986-11.965z" transform="translate(-256 -143) translate(257 143) translate(-.176 39.869) translate(400.466 96.704) scale(-1 1) rotate(8 -256.53 -2583.667)"/>
                        </g>
                        <path fill="#4060A9" d="M93.617 82.117c-2.674 2.945-7.227 3.164-10.171.49l-10.998-10.03 9.695-10.669 10.986 10.03c2.942 2.676 3.16 7.233.488 10.18zM38.051 21.891L19.087 6.195c-.715-.591-1.165-1.443-1.252-2.367-.087-.924.197-1.845.788-2.56C19.214.553 20.065.102 20.99.015c.923-.087 1.843.197 2.557.79L42.498 16.5l-4.447 5.391zM20.214 44.82L1.274 29.126c-.716-.59-1.168-1.44-1.258-2.365-.09-.924.192-1.846.783-2.562.589-.718 1.44-1.171 2.365-1.258.924-.087 1.845.199 2.558.794l18.964 15.683-4.472 5.404z" transform="translate(-256 -143) translate(257 143) translate(-.176 39.869) translate(400.466 96.704)"/>
                        <g fill="#FFF" opacity=".6">
                            <path d="M20.232 21.891L1.267 6.195C.553 5.604.102 4.752.015 3.828c-.087-.924.197-1.845.789-2.56C1.394.553 2.246.102 3.169.015c.923-.087 1.843.197 2.558.79L24.679 16.5l-4.447 5.391z" transform="translate(-256 -143) translate(257 143) translate(-.176 39.869) translate(400.466 96.704) translate(17.82)"/>
                        </g>
                        <g fill="#FFF" opacity=".6">
                            <path d="M20.214 21.896L1.274 6.2C.559 5.61.107 4.76.017 3.836-.074 2.912.208 1.99.8 1.274 1.388.555 2.239.102 3.164.015c.924-.087 1.845.2 2.558.795l18.964 15.683-4.472 5.403z" transform="translate(-256 -143) translate(257 143) translate(-.176 39.869) translate(400.466 96.704) translate(0 22.924)"/>
                        </g>
                        <path fill="#4060A9" d="M81.141 41.787l.501-.602c2.194-2.643 2.037-6.517-.363-8.974s-6.267-2.701-8.956-.566L44.565 8.502 12.81 46.526l28.41 22.566c-1.823 2.85-1.237 6.614 1.365 8.775 2.801 2.319 6.94 1.974 9.32-.777 8.337 6.295 20.165 4.812 26.692-3.347l4.56-5.692c6.314-7.93 5.433-19.393-2.017-26.264z" transform="translate(-256 -143) translate(257 143) translate(-.176 39.869) translate(400.466 96.704)"/>
                        <path fill="#70A9FA" d="M25.272 33.836L50.696 33.847 50.698 38.822 25.274 38.811z" transform="translate(-256 -143) translate(257 143) translate(-.176 39.869) translate(400.466 96.704) rotate(39.59 37.985 36.329)"/>
                        <path fill="#263238" d="M81.141 41.787c-.308.522-.66 1.017-1.052 1.48-.701.94-1.741 2.268-3.044 3.898-2.593 3.272-6.263 7.723-10.359 12.6-4.096 4.876-7.741 9.201-10.51 12.473L52.996 76c-.376.48-.796.925-1.253 1.33.309-.523.66-1.018 1.053-1.48.701-.94 1.74-2.27 3.043-3.899 2.593-3.272 6.263-7.722 10.36-12.537l10.509-12.536 3.194-3.761c.37-.481.786-.926 1.24-1.33zM72.323 31.595c-.328.551-.705 1.071-1.128 1.554-.764.978-1.891 2.382-3.281 4.1-2.806 3.435-6.74 8.123-11.124 13.263-4.384 5.14-8.317 9.704-11.273 13.151-1.403 1.605-2.505 2.946-3.432 3.962-.404.503-.848.973-1.328 1.404.341-.545.722-1.065 1.14-1.554.764-.978 1.879-2.382 3.282-4.1 2.806-3.435 6.739-8.124 11.123-13.264l11.273-13.138 3.433-3.974c.401-.501.841-.97 1.315-1.404z" transform="translate(-256 -143) translate(257 143) translate(-.176 39.869) translate(400.466 96.704)"/>
                    </g>
                    <g>
                        <g>
                            <path fill="#4060A9" d="M137.112 70.046c-9.757 3.407-19.986 5.264-30.317 5.504-33.621.905-64.056-9.614-101.37-39.837C3.549 31.697 1.74 27.449 0 22.968 35.92 52.063 74.804 68.962 106.603 68.16c8.123-.214 16.182-1.496 23.97-3.813-8.671-9.05-13.045-20.876-12.985-35.238 0-15.742 6.76-22.878 12.363-26.083 7.931-4.555 18.783-3.932 28.3 1.617 10.496 6.128 16.737 16.484 16.693 27.716-.146 9.332-4.561 18.082-11.979 23.739-5.456 4.19-11.37 7.749-17.626 10.608 17.896 9.828 36.414 12.529 59.954 8.891 16.207-2.505 35.2-5.851 94.645 57.093 3.075 2.582-1.218 7.868-4.5 4.45-56.324-58.271-71.662-55.71-90.03-53.89-6.284.622-11.955 1.77-17.997 1.765-27.904-.427-43.565-9.016-50.3-14.97zm-3.5-60.58c-5.618 3.22-8.597 10.03-8.642 19.704 0 13.843 4.285 24.54 13.342 32.493 7.194-2.865 13.959-6.71 20.102-11.425 5.608-4.253 8.966-10.838 9.117-17.878 0-8.561-4.832-16.514-13.03-21.291-3.812-2.308-8.162-3.572-12.616-3.665-2.89-.046-5.741.665-8.272 2.062z" transform="translate(-256 -143) translate(257 143) translate(-.176 39.869) rotate(147 146.695 106.516)"/>
                            <path fill="#263238" d="M143.012 73.873c-.998-.279-1.937-.736-2.773-1.35-2.108-1.333-4.115-2.82-6.003-4.45-1.92-1.586-3.71-3.323-5.352-5.194-.74-.734-1.328-1.606-1.735-2.567.09 0 .786.89 2.12 2.226 1.335 1.335 3.232 3.116 5.426 4.97 2.194 1.855 4.284 3.457 5.826 4.54.872.549 1.705 1.159 2.49 1.825zM150.78 69.541c-1.156-.064-2.36-.48-3.407-.975-2.57-1.058-4.93-2.628-7.078-4.392-2.158-1.744-4.07-3.473-5.763-5.672-.758-.885-1.466-1.892-1.906-2.971.089 0 .928 1.013 2.306 2.6 1.801 2.065 3.964 3.798 6.108 5.504 2.105 1.724 4.25 3.185 6.705 4.358 1.81.95 3.064 1.43 3.035 1.548z" transform="translate(-256 -143) translate(257 143) translate(-.176 39.869) rotate(147 146.695 106.516)"/>
                        </g>
                        <path fill="#4060A9" d="M327.587 102.486L316.45 45.193c-.517-2.262-2.734-3.705-5.009-3.261-2.275.443-3.79 2.613-3.421 4.903l.513 2.608-23.035 5.666c-4.96 1.217-8.992 4.82-10.76 9.616l-13.891 3.423c-4.814 1.185-7.757 6.05-6.577 10.869l1.253 5.015-13.59 3.36c-2.45.604-4.393 2.471-5.095 4.897-.701 2.426-.057 5.042 1.692 6.864 1.748 1.821 4.334 2.57 6.784 1.966l13.604-3.347.964 3.924c1.185 4.817 6.046 7.763 10.86 6.581l14.142-3.485v-.113c3.76 3.218 8.837 4.427 13.641 3.247l20.443-5.014.238 1.253c.517 2.262 2.733 3.705 5.009 3.262 2.275-.444 3.789-2.613 3.42-4.904l-.05-.037z" transform="translate(-256 -143) translate(257 143) translate(-.176 39.869)"/>
                        <path fill="#263238" d="M319.42 102.786c-.163 0-2.844-11.86-5.988-26.552-3.144-14.693-5.574-26.653-5.399-26.69.176-.038 2.844 11.846 6 26.552 3.157 14.705 5.562 26.653 5.387 26.69zM284.835 104.642c-.163 0-2.505-8.889-5.336-19.933-2.83-11.045-4.898-20.06-4.735-20.06.163 0 2.505 8.89 5.336 19.96 2.831 11.07 4.898 20.033 4.735 20.033zM258.894 97.772c-.92-2.174-1.588-4.445-1.992-6.77-.6-2.277-1.06-4.588-1.378-6.92.912 2.179 1.576 4.454 1.98 6.782.6 2.273 1.064 4.58 1.39 6.908z" transform="translate(-256 -143) translate(257 143) translate(-.176 39.869)"/>
                    </g>
                    <g fill="#9DADEC" stroke="#9DADEC" stroke-width=".5">
                        <path d="M180.156 20.759l-3.005 2.063-3.09 1.61-11.415 5.837-38.47 19.392c-1.487-1.593-2.615-3.171-3.753-4.764h0l-4.605-6.537-35.234 20.362-10.636 6.075-2.895 1.601c-1.22.676-.35.193-2.756 1.27h0l2.439-1.807 2.796-1.721 10.537-6.241 35.752-20.929c1.9 2.136 3.452 4.31 5.014 6.499l.359.503c.912 1.303 1.816 2.589 2.69 3.82h0l.353.498 37.936-18.886 11.512-5.643 3.138-1.507 3.333-1.495zM174.962 71.058l-9.94 2.206-8.16 1.728-27.524 5.338-1.009-3.888c-.08-.494-.167-.987-.253-1.462-10.665 1.634-20.372 3.896-27.274 5.775-2.386.623-4.446 1.188-6.154 1.657-.812.223-1.545.424-2.193.599h0l-2.236.625c-.273.089-.555.148-.84.177-.283.028-.569.027-.852-.004.217-.175.457-.333.71-.466.254-.134.521-.243.789-.323h0l2.201-.739c1.937-.627 4.738-1.492 8.25-2.468 9.197-2.572 18.519-4.676 27.93-6.302.74 1.213.883 1.995 1.026 2.766.089.498.175.991.26 1.476l.178 1.012h0l26.803-4.669 8.186-1.393 10.102-1.645zM74.57 23.728c.457-.057.283.138.296.211.004.022.006.051.002.088-.002.027-.01.064-.023.112-.018.066-.051.163-.098.287-.09.238-.235.586-.428 1.033-.39.902-.981 2.21-1.728 3.822-1.428 3.086-3.426 7.29-5.67 11.907-2.332 4.794-4.466 9.107-6.018 12.162-.758 1.493-1.378 2.687-1.813 3.49-.213.393-.383.694-.504.892-.065.105-.117.184-.155.235-.03.038-.054.065-.073.083-.029.026-.054.041-.075.051-.096.047-.17.029-.224.004-.057-.027-.12-.072-.144-.179-.006-.022-.01-.053-.007-.092.002-.026.007-.062.02-.11.015-.06.044-.149.087-.264.08-.216.21-.533.386-.94.36-.836.91-2.055 1.611-3.568 1.442-3.114 3.515-7.474 5.846-12.289 1.598-3.302 3.108-6.372 4.401-8.961l.306-.612c1.121-2.238 2.062-4.077 2.731-5.342.333-.628.599-1.115.787-1.44.095-.164.172-.289.227-.37.036-.051.065-.088.087-.112.083-.07.105-.081.135-.093l.038-.005zM116.125 61.268h.03l.165.04.048.067c.08.113.196.21-.086.387-.023.015-.056.033-.102.054-.07.032-.173.075-.31.126-.265.1-.66.238-1.17.408-1.03.344-2.533.823-4.397 1.401-3.536 1.098-8.371 2.552-13.725 4.117-8.188 2.394-15.248 4.333-18.285 5.1-.554.138-.946.232-1.203.289-.137.03-.237.05-.304.06-.045.008-.079.011-.102.012-.032.001-.056-.001-.072-.004-.014-.002-.031-.006-.053-.014h0l-.054-.028c-.055-.036-.08-.084-.096-.13-.02-.063-.029-.144.045-.241h0l.021-.023.016-.014c.013-.011.032-.025.06-.04.024-.014.06-.031.11-.052.08-.034.2-.08.36-.138.311-.112.775-.27 1.374-.467 1.16-.382 2.83-.913 4.875-1.548 3.458-1.072 7.992-2.442 12.972-3.896 5.483-1.601 10.45-3.012 14.047-3.999 1.823-.5 3.294-.89 4.302-1.142.495-.123.88-.213 1.14-.265.135-.028.24-.046.31-.054.05-.006.088-.007.114-.006zM47.643-1.112c.238.314.45.646.637.994.244.457.442.938.588 1.435.362 1.031.835 2.395 1.39 4.064h0l4.91 14.712-10.8.204c.07.379.152.807.24 1.273.136.712.288 1.513.44 2.358.966 5.286 1.879 10.335 2.703 14.893.696 3.85 1.328 7.35 1.877 10.35h0l.114.668c.492 2.86.897 5.222 1.195 6.999.069.46.133.877.192 1.252.047.303.09.579.127.827.06.26.085.53.073.797-.01.239-.051.475-.12.704-.14-.187-.262-.395-.358-.615-.109-.246-.185-.506-.226-.762-.08-.4-.18-.863-.298-1.402l-.147-.674h0l-1.517-7.621c-1.24-6.533-2.923-15.407-4.789-25.216-.138-.77-.28-1.533-.419-2.284-.147-.789-.29-1.565-.426-2.324h0l10.734-.137-4.329-13.725c-.514-1.699-.932-3.078-1.239-4.179-.157-.468-.284-.946-.381-1.43-.077-.384-.134-.772-.17-1.161zM31.789 89.772c.108.01.133.018.162.033l.028.022c.239.19.11.252.074.323-.01.02-.026.046-.053.074-.018.019-.046.044-.086.073-.053.04-.135.092-.245.157-.207.123-.52.295-.93.511-.82.434-2.03 1.046-3.533 1.788-2.837 1.401-6.726 3.27-11.038 5.287-7.77 3.636-14.263 6.547-15.76 7.076l-.03.01c-.014.002-.03.004-.045.004-.056.002-.098-.005-.128-.014-.13-.04-.17-.12-.189-.196-.013-.055-.02-.132.045-.228.016-.023.04-.051.075-.083.075-.068.232-.173.464-.307.471-.273 1.275-.689 2.31-1.208 3.325-1.66 7.755-3.794 12.754-6.133 4.454-2.085 8.488-3.934 11.4-5.233 1.457-.65 2.634-1.161 3.442-1.495.397-.164.706-.286.917-.361.113-.04.2-.067.26-.082.045-.011.08-.017.106-.018zM46.722 98.345c-.366.59-.742 1.174-1.127 1.752-1.824 2.743-3.845 5.35-6.046 7.8-2.014 2.595-4.204 5.048-6.555 7.34-.497.485-1 .962-1.511 1.43.367-.587.743-1.17 1.128-1.747 1.826-2.738 3.842-5.345 6.033-7.8 2.024-2.59 4.219-5.041 6.568-7.34.497-.486 1-.964 1.51-1.435zM56.76 102.143l.07.142h0l.004.01c.006.017.013.043.018.077.004.03.007.075.009.133.002.097-.001.24-.009.43-.015.372-.05.926-.102 1.642-.107 1.476-.288 3.643-.528 6.34-.491 5.51-1.229 13.228-2.082 21.774-.832 8.32-1.625 15.85-2.236 21.313-.315 2.808-.58 5.07-.78 6.615-.097.757-.178 1.342-.24 1.735-.032.198-.06.349-.082.45-.013.06-.025.105-.036.135-.011.033-.023.057-.033.074h0l-.011.017-.02.026c-.105.111-.21.09-.282.076h0l-.109-.067-.039-.081-.008-.021c-.006-.018-.012-.044-.016-.078-.004-.032-.007-.079-.007-.141-.001-.105.003-.261.012-.467.02-.408.058-1.015.116-1.799.117-1.59.312-3.911.568-6.784.486-5.46 1.196-12.913 2.023-21.123.855-8.487 1.664-16.155 2.278-21.645.304-2.723.561-4.91.753-6.396.093-.723.17-1.281.23-1.654.03-.19.057-.333.078-.428.013-.058.026-.102.036-.13.012-.034.025-.059.035-.075l.013-.02h0l.377-.08zM25.733 41.615c.285.366.563.737.832 1.115 1.276 1.793 2.361 3.714 3.237 5.733 1.08 1.914 1.953 3.939 2.602 6.04.136.44.261.882.377 1.326-.281-.363-.555-.733-.82-1.108-1.269-1.795-2.348-3.716-3.223-5.733-1.077-1.917-1.953-3.94-2.615-6.037-.14-.443-.27-.888-.39-1.336z" transform="translate(-256 -143) translate(257 143) translate(-.176 39.869) translate(327.763 5.64)"/>
                    </g>
                </g>
            </g>
        </g>
    </g>
</svg>
