<svg width="360" height="164" fill="none" xmlns="http://www.w3.org/2000/svg">
    <mask id="a" mask-type="alpha" maskUnits="userSpaceOnUse" x="0" y="0" width="360" height="164">
        <path fill="#C4C4C4" d="M0 0h360v163.807H0z"/>
    </mask>
    <g mask="url(#a)">
        <path opacity=".7" d="M68.365 63.449c.81-21.03 11.247-41.879 28.719-53.647 17.471-11.769 41.796-13.377 59.798-2.438 11.217 6.813 19.352 17.663 26.126 28.892 3.712 6.154 7.585 12.937 14.259 15.624 8.676 3.507 18.212-1.269 27.388-3.097 22.224-4.437 44.093 9.073 50.032 30.91 8.005 33.158-15.28 56.824-40.176 71.19-27.827 16.064-63.04 16.044-93.3 5.335-19.862-6.994-38.374-18.582-51.903-34.716-13.528-16.134-21.764-37.024-20.943-58.053z" fill="#DCE9F3"/>
        <path opacity=".5" d="M114.472 157.309c6.646-4.55 9.77-14.537 5.615-21.427-4.205-6.267-10.735-11.266-18.196-12.323-7.46-1.056-15.745 2.478-19.07 9.256-2.098 4.265-2.103 9.421-.365 13.843a22.007 22.007 0 0 0 9.194 10.57c6.87 4.155 16.196 4.619 22.822.081z" fill="#DCE9F3"/>
        <path d="M310.953 23.584c-1.3-8.491-9.488-16.124-18.035-15.305-7.981 1.158-15.81 5.136-20.278 11.848-4.469 6.712-4.888 16.301.101 22.634 3.138 3.988 8.087 6.379 13.141 6.748a23.497 23.497 0 0 0 14.421-3.973c7.202-4.7 11.948-13.45 10.65-21.952z" fill="#DCE9F3"/>
        <path d="M254.614 123.799a14.66 14.66 0 0 0 4.099-1.191c12.906-5.928 10.831-15.55 9.186-23.288-1.548-7.208-2.213-11.786 3.476-14.884 7.531-4.096 11.206-1.662 16.778 2.023 6.633 4.39 14.878 9.855 32.305 4.715 9.026-2.663 23.232-9.628 39.292-27.634a146.934 146.934 0 0 0 15.43-20.535l-3.062-1.825c-.229.379-22.736 37.751-52.669 46.571-15.83 4.67-22.998-.08-29.328-4.266-5.676-3.757-11.034-7.307-20.452-2.187-8.315 4.531-6.696 12.091-5.259 18.766 1.676 7.813 3.123 14.558-7.187 19.297-11.615 5.335-30.265-11.654-41.385-21.777-3.978-3.613-6.756-6.245-8.858-7.519l-2.367 2.502c1.376 1.253 5.15 4.338 8.828 7.661 11.329 10.331 27.927 25.433 41.173 23.571z" fill="#745EF6"/>
        <path d="M206.515 91.438a43.626 43.626 0 0 0 6.371 4.787 46.188 46.188 0 0 0-6.371-4.787z" fill="#fff"/>
        <path d="M218.981 102.868a3.39 3.39 0 0 1-4.788.23l-5.177-4.718 4.563-5.018 5.172 4.718a3.39 3.39 0 0 1 .23 4.788zm-26.159-28.329-8.928-7.383a1.645 1.645 0 1 1 2.1-2.535l8.922 7.382-2.094 2.536zm-8.397 10.785-8.916-7.382a1.647 1.647 0 0 1 .889-2.91 1.64 1.64 0 0 1 1.204.374l8.929 7.377-2.105 2.542h-.001z" fill="#745EF6"/>
        <path opacity=".6" d="m192.823 74.54-8.929-7.384a1.647 1.647 0 0 1 2.1-2.535l8.923 7.383-2.094 2.535zM184.425 85.323l-8.916-7.383a1.647 1.647 0 0 1 .889-2.91c.435-.04.869.094 1.204.375l8.929 7.376-2.105 2.542h-.001z" fill="#fff"/>
        <path d="m213.108 83.899.235-.283a3.154 3.154 0 0 0-4.387-4.488l-13.067-10.886-14.949 17.886 13.375 10.614a3.155 3.155 0 0 0 .642 4.128 3.15 3.15 0 0 0 4.388-.365 9.087 9.087 0 0 0 12.566-1.575l2.146-2.678a9.093 9.093 0 0 0-.949-12.353z" fill="#745EF6"/>
        <path d="m188.927 76.617 9.221 7.625-1.492 1.804-9.221-7.625 1.492-1.804z" fill="#543EBF"/>
        <path d="M213.108 83.9a5.08 5.08 0 0 1-.495.695c-.331.443-.82 1.068-1.433 1.834-1.221 1.54-2.948 3.633-4.877 5.927a2309.847 2309.847 0 0 1-4.947 5.867l-1.498 1.77a4.786 4.786 0 0 1-.59.624c.145-.245.311-.478.495-.696.33-.442.82-1.067 1.433-1.833a231.065 231.065 0 0 1 4.877-5.897l4.947-5.897 1.504-1.77c.174-.226.37-.435.584-.624zm-4.152-4.794a4.925 4.925 0 0 1-.53.73c-.36.46-.89 1.121-1.545 1.929a409.564 409.564 0 0 1-5.237 6.239c-2.064 2.417-3.915 4.564-5.307 6.186-.66.754-1.179 1.385-1.615 1.863-.191.237-.4.458-.626.66.161-.256.34-.5.537-.73.359-.46.884-1.121 1.545-1.929a408.972 408.972 0 0 1 5.236-6.24l5.308-6.179 1.615-1.87a5.94 5.94 0 0 1 .619-.66z" fill="#263238"/>
        <path d="M52.98 83.684c5.9-2.216 11.027-3.175 15.594-2.895a46.586 46.586 0 0 1 10.56-9.945c13.042-8.977 27.753-12.631 50.228-10.276a97.09 97.09 0 0 1 5.407 3.637c-21.635-2.268-41.317 1.036-53.667 9.505a43.627 43.627 0 0 0-8.487 7.65c5.743 1.347 10.498 4.89 14.155 10.571 4.032 6.21 3.192 10.759 1.8 13.46-1.964 3.831-6.408 6.367-11.587 6.618-5.714.274-10.831-2.211-13.691-6.653a14.324 14.324 0 0 1-1.353-12.437 42.932 42.932 0 0 1 4.242-8.704c-9.584.712-17.587 4.394-25.949 11.865-5.757 5.143-17.47 10.511-57.065.922-12.777-3.095-3.631-4.201 1.406-3.043 37.166 8.546 46.867 4.56 53.654-.868 2.321-1.857 4.266-3.763 6.653-5.311a42.227 42.227 0 0 1 8.1-4.096zm32.495 20.105c1.394-2.71.825-6.16-1.635-9.988-3.547-5.461-7.979-8.583-13.592-9.397a39.575 39.575 0 0 0-5.01 9.66 10.845 10.845 0 0 0 .98 9.391c2.193 3.377 6.139 5.275 10.6 5.058a11.96 11.96 0 0 0 5.92-1.789 7.815 7.815 0 0 0 2.737-2.935z" fill="#745EF6"/>
        <path d="M65.264 80.792a4.037 4.037 0 0 1 1.44-.178 23.827 23.827 0 0 1 3.512.216c1.163.134 2.315.36 3.443.677.48.1.936.293 1.342.568-.035.022-.538-.15-1.407-.335-.869-.185-2.074-.4-3.416-.57a40.925 40.925 0 0 0-3.463-.297c-.485.008-.97-.02-1.45-.08zm-1.957 3.7c.473-.27 1.055-.415 1.595-.488 1.286-.241 2.62-.228 3.92-.082 1.299.135 2.496.327 3.728.76.526.154 1.064.37 1.514.683-.035.023-.626-.162-1.577-.435-1.24-.352-2.538-.481-3.822-.605-1.272-.14-2.494-.166-3.763 0-.958.09-1.576.222-1.595.168z" fill="#263238"/>
        <path d="m140.599 66.966-5.242-26.949a2.023 2.023 0 0 0-3.969.772l.242 1.227-10.844 2.666a7.235 7.235 0 0 0-5.066 4.522l-6.539 1.61a4.228 4.228 0 0 0-3.096 5.113l.589 2.359-6.398 1.58a3.326 3.326 0 0 0 1.593 6.457l6.403-1.574.455 1.845a4.227 4.227 0 0 0 5.112 3.096l6.658-1.639v-.053a7.229 7.229 0 0 0 6.422 1.527l9.623-2.358.112.59a2.023 2.023 0 0 0 3.969-.774l-.023-.017h-.001z" fill="#745EF6"/>
        <path d="M136.755 67.103c-.077 0-1.339-5.578-2.819-12.49-1.48-6.91-2.624-12.536-2.541-12.554.082-.018 1.338 5.573 2.824 12.49 1.486 6.917 2.619 12.537 2.536 12.554zm-16.282.873c-.077 0-1.179-4.18-2.512-9.376-1.332-5.195-2.305-9.435-2.229-9.435.077 0 1.18 4.18 2.512 9.388 1.333 5.207 2.306 9.423 2.229 9.423zm-12.212-3.231a14.612 14.612 0 0 1-.938-3.185 27.1 27.1 0 0 1-.648-3.255c.429 1.025.742 2.095.931 3.19.283 1.07.502 2.154.655 3.25z" fill="#263238"/>
        <path d="m225.495 31.174-1.415.971-1.455.758-5.374 2.745-18.11 9.12c-.7-.748-1.232-1.49-1.767-2.24l-2.168-3.075-16.587 9.578-5.008 2.858-1.362.753c-.575.318-.164.09-1.298.597l1.149-.85 1.316-.81 4.961-2.935 16.83-9.844c.895 1.005 1.625 2.027 2.361 3.057l.169.237c.43.613.855 1.217 1.266 1.797l.167.234 17.859-8.884 5.419-2.654 1.477-.709 1.57-.704zm-2.406 23.651-4.719 1.046-3.842.813-12.957 2.51-.475-1.828a29.64 29.64 0 0 0-.119-.688c-5.021.769-9.59 1.833-12.84 2.717-1.123.293-2.093.558-2.897.779-.382.105-.727.2-1.032.282l-1.053.294a1.914 1.914 0 0 1-.797.08 2.144 2.144 0 0 1 .706-.37l1.036-.348a97.728 97.728 0 0 1 3.884-1.16c4.33-1.21 8.718-2.2 13.148-2.965.349.57.417.938.484 1.301l.122.694.084.476 12.618-2.196 3.854-.655 4.795-.782zm-47.301-22.254c.215-.027.133.064.139.1.002.01.003.023.001.04a.34.34 0 0 1-.011.053 1.53 1.53 0 0 1-.046.136c-.042.111-.11.275-.201.485a88.86 88.86 0 0 1-.814 1.799 340.799 340.799 0 0 1-2.67 5.6 460.618 460.618 0 0 1-2 4.065l-.146.292a142.147 142.147 0 0 1-1.347 2.644 21.1 21.1 0 0 1-.376.69 2.427 2.427 0 0 1-.109.175.445.445 0 0 1-.042.054.13.13 0 0 1-.033.028.111.111 0 0 1-.119.009.113.113 0 0 1-.067-.084.213.213 0 0 1 .006-.095c.007-.029.021-.07.041-.125.038-.101.099-.25.181-.442.17-.392.429-.966.759-1.678a406.327 406.327 0 0 1 2.752-5.78 380.784 380.784 0 0 1 1.999-4.068l.217-.435c.528-1.053.971-1.918 1.286-2.513.156-.296.282-.524.37-.677a2.37 2.37 0 0 1 .148-.227.214.214 0 0 1 .064-.044l.018-.002zm19.577 17.658.077.019.023.031c.038.053.093.099-.041.182a.355.355 0 0 1-.048.026 2.41 2.41 0 0 1-.146.06c-.124.046-.311.11-.551.19-.484.162-1.192.388-2.069.66-1.665.516-3.941 1.2-6.462 1.937-3.787 1.105-7.061 2.005-8.53 2.379-.296.073-.499.122-.629.151a3.685 3.685 0 0 1-.154.032.88.88 0 0 1-.05.006.18.18 0 0 1-.035-.001c-.006-.002-.014-.003-.024-.007l-.026-.013a.116.116 0 0 1-.047-.061.116.116 0 0 1 .021-.114l.011-.011.007-.007a.504.504 0 0 1 .08-.043 3.07 3.07 0 0 1 .169-.064c.147-.054.365-.128.647-.22.547-.18 1.332-.43 2.295-.728 1.628-.505 3.763-1.15 6.107-1.833 2.581-.753 4.92-1.417 6.613-1.881.858-.236 1.551-.42 2.025-.537.234-.058.414-.1.537-.125l.045-.01c.042-.007.076-.013.101-.015.023-.003.041-.004.054-.003zm-32.254-29.342a3.6 3.6 0 0 1 .577 1.143c.17.485.393 1.126.655 1.91.328.976.725 2.165 1.178 3.524l.184.553.287.86.299.899.363 1.085-5.084.096c.033.181.072.387.115.61.063.332.134.704.205 1.098.454 2.487.884 4.861 1.272 7.005.328 1.81.625 3.457.883 4.869l.055.314c.231 1.346.422 2.456.562 3.291.032.217.063.413.09.59.022.142.043.272.06.389a1.393 1.393 0 0 1-.022.706 1.48 1.48 0 0 1-.275-.648c-.037-.188-.085-.405-.14-.659l-.07-.317-.714-3.584c-.583-3.074-1.375-7.247-2.253-11.861-.065-.363-.132-.721-.198-1.074-.069-.372-.137-.737-.2-1.094l5.053-.064-2.038-6.456c-.243-.8-.439-1.448-.583-1.966a5.401 5.401 0 0 1-.26-1.219h-.001zm-7.48 42.751c.052 0 .063.002.077.006l.015.01c.193.117.049.132.048.164l-.018.024-.005.006-.01.01a1.366 1.366 0 0 1-.142.097 9.837 9.837 0 0 1-.424.233c-.374.197-.925.477-1.612.816a280.38 280.38 0 0 1-5.082 2.435c-2.848 1.332-5.192 2.397-6.541 2.979l-.267.114c-.301.128-.537.225-.699.286a2.87 2.87 0 0 1-.189.066.459.459 0 0 1-.064.015.148.148 0 0 1-.043 0 .112.112 0 0 1-.098-.066.12.12 0 0 1 .001-.111l.01-.016.006-.008a.192.192 0 0 1 .033-.032.847.847 0 0 1 .076-.053c.061-.038.154-.09.276-.157.245-.133.61-.321 1.073-.554 1.53-.763 3.542-1.731 5.819-2.798 2.972-1.39 5.41-2.498 6.723-3.061.353-.15.606-.255.774-.32.088-.033.153-.056.197-.07a.449.449 0 0 1 .066-.015zm7.047 4.03a31.948 31.948 0 0 1-3.377 4.494 33.552 33.552 0 0 1-3.798 4.126 33.17 33.17 0 0 1 3.371-4.492 35.088 35.088 0 0 1 3.804-4.128zm4.725 1.786.031.062.004.01a.62.62 0 0 1 .013.098c.001.045 0 .111-.004.198-.007.172-.023.427-.047.758-.049.68-.132 1.68-.243 2.926-.227 2.545-.568 6.117-.964 10.082l-.023.236a909.657 909.657 0 0 1-1.053 10.026 199.577 199.577 0 0 1-.367 3.11c-.045.357-.084.632-.113.817a4.763 4.763 0 0 1-.038.212c-.007.028-.012.049-.018.064a.143.143 0 0 1-.015.034l-.005.008-.01.013c-.049.051-.099.042-.133.035l-.051-.032-.018-.038-.004-.01c-.002-.008-.006-.02-.008-.036a2.3 2.3 0 0 1-.003-.066c0-.05.002-.124.006-.22.009-.192.028-.478.054-.847.056-.747.147-1.839.268-3.19.229-2.569.563-6.075.952-9.936.403-3.992.783-7.599 1.072-10.182.144-1.28.265-2.309.355-3.008.044-.34.08-.603.108-.778.014-.089.027-.156.037-.2a.456.456 0 0 1 .017-.063c.006-.016.012-.027.016-.035l.007-.009.177-.038zm-14.607-28.47a14.786 14.786 0 0 1 1.916 3.221 14.41 14.41 0 0 1 1.403 3.466 14.972 14.972 0 0 1-1.903-3.218 14.982 14.982 0 0 1-1.416-3.469z" fill="#E3133F"/>
    </g>
</svg>
